<?xml version="1.0" ?><svg height="24" id="svg4647" version="1.1" viewBox="0 0 6.3499999 6.3500002" width="24" xmlns="http://www.w3.org/2000/svg" xmlns:cc="http://creativecommons.org/ns#" xmlns:dc="http://purl.org/dc/elements/1.1/" xmlns:inkscape="http://www.inkscape.org/namespaces/inkscape" xmlns:rdf="http://www.w3.org/1999/02/22-rdf-syntax-ns#" xmlns:sodipodi="http://sodipodi.sourceforge.net/DTD/sodipodi-0.dtd" xmlns:svg="http://www.w3.org/2000/svg"><defs id="defs4641"/><g id="layer1" transform="translate(0,-290.64999)"><path d="M 1.058333,234.10475 C 0.47201702,234.10475 2.4999999e-8,234.57677 2.4999999e-8,235.16308 v 4.23334 c 0,0.58631 0.472016995000001,1.05833 1.058332975000001,1.05833 h 4.233334 c 0.586317,0 1.058333,-0.47202 1.058333,-1.05833 v -4.23334 c 0,-0.58631 -0.472016,-1.05833 -1.058333,-1.05833 z m 0.794267,1.05833 h 2.644283 c 0.435161,0 0.795301,0.35808 0.795301,0.79324 v 2.64635 c 0,0.43516 -0.36014,0.79271 -0.795301,0.79271 H 1.8526 c -0.435161,0 -0.794783,-0.35755 -0.794783,-0.79271 v -2.64635 c 0,-0.43516 0.359622,-0.79324 0.794783,-0.79324 z m 0,0.52969 c -0.151155,0 -0.265617,0.11239 -0.265617,0.26355 v 2.64635 c 0,0.15115 0.114462,0.26355 0.265617,0.26355 h 2.644283 c 0.151156,0 0.266134,-0.1124 0.266134,-0.26355 v -2.64635 c 0,-0.15116 -0.114978,-0.26355 -0.266134,-0.26355 z m 2.380734,0.26406 a 0.26458334,0.26458334 0 0 1 0.264583,0.26459 0.26458334,0.26458334 0 0 1 -0.264583,0.26458 0.26458334,0.26458334 0 0 1 -0.264584,-0.26458 0.26458334,0.26458334 0 0 1 0.264584,-0.26459 z M 3.175,236.22193 c 0.581368,0 1.058334,0.47697 1.058334,1.05834 0,0.58136 -0.476966,1.05885 -1.058334,1.05885 -0.581367,0 -1.05885,-0.47749 -1.05885,-1.05885 0,-0.58137 0.477483,-1.05834 1.05885,-1.05834 z m 0,0.52917 c -0.295384,0 -0.529683,0.23378 -0.529683,0.52917 0,0.29538 0.234299,0.52968 0.529683,0.52968 0.295385,0 0.529167,-0.2343 0.529167,-0.52968 0,-0.29539 -0.233782,-0.52917 -0.529167,-0.52917 z" id="rect4598" style="opacity:1;fill:#333333;fill-opacity:1;stroke:none;stroke-width:0.26458335;stroke-linecap:butt;stroke-linejoin:miter;stroke-miterlimit:4;stroke-dasharray:none;stroke-dashoffset:0;stroke-opacity:1"/><path d="M 1.058333,290.64999 C 0.47201602,290.64999 2.4999999e-8,291.12201 2.4999999e-8,291.70832 v 4.23334 c 0,0.58631 0.472015995000001,1.05833 1.058332975000001,1.05833 h 4.233333 c 0.586317,0 1.058334,-0.47202 1.058334,-1.05833 v -4.23334 c 0,-0.58631 -0.472017,-1.05833 -1.058334,-1.05833 z m 0.617016,1.26866 c 0.268058,-1e-4 0.485707,0.20104 0.485241,0.44855 -4.5e-5,0.24717 -0.217543,0.44762 -0.485241,0.44752 -0.267694,10e-5 -0.484679,-0.20035 -0.484724,-0.44752 -5.29e-4,-0.24751 0.216667,-0.44865 0.484724,-0.44855 z m 2.518709,1.1808 c 0.57412,0 0.965317,0.35647 0.965317,1.02733 v 1.60455 H 4.288626 v -1.60455 c 0,-0.17923 -0.105114,-0.35967 -0.390673,-0.35967 -0.478571,0 -0.480592,0.48161 -0.480592,0.65733 v 1.30689 H 2.546614 v -2.61327 h 0.870747 v 0.43563 c 0,0 0.213278,-0.45424 0.776697,-0.45424 z m -2.953824,0.0186 h 0.870747 v 2.61327 H 1.240234 Z" id="rect5222" style="opacity:1;fill:#333333;fill-opacity:1;stroke:none;stroke-width:0.26458335;stroke-linecap:butt;stroke-linejoin:miter;stroke-miterlimit:4;stroke-dasharray:none;stroke-dashoffset:0;stroke-opacity:1"/></g></svg>